<?xml version="1.0" encoding="UTF-8"?>
<svg id="Layer_1" xmlns="http://www.w3.org/2000/svg" version="1.1" xmlns:xlink="http://www.w3.org/1999/xlink" viewBox="0 0 120 33.17">
  <!-- Generator: Adobe Illustrator 29.0.0, SVG Export Plug-In . SVG Version: 2.1.0 Build 186)  -->
  <defs>
    <style>
      .st0 {
        fill: #3e3a39;
      }

      .st1 {
        fill: none;
      }

      .st2 {
        fill: #00b6ff;
      }

      .st3 {
        fill: #1677ff;
      }

      .st4 {
        clip-path: url(#clippath);
      }
    </style>
    <clipPath id="clippath">
      <rect class="st1" y="0" width="120" height="33.17"/>
    </clipPath>
  </defs>
  <g class="st4">
    <path class="st3" d="M120,19.53h-10.95c-1.45,0-2.84-.56-3.86-1.57-1.02-1-1.6-2.36-1.6-3.78h13.78c.35,0,.69.07,1.01.2.32.13.61.32.86.56.24.24.44.52.57.84.13.31.2.65.2.99v2.77Z"/>
    <path class="st2" d="M92.64,14.18h8.3v5.35h-5.66c-.7,0-1.37-.27-1.86-.76-.49-.48-.77-1.14-.77-1.83v-2.77h0Z"/>
    <path class="st3" d="M109.04,6.03v13.51c-.72,0-1.43-.14-2.09-.41-.66-.27-1.26-.66-1.77-1.16-.51-.5-.91-1.09-1.19-1.74-.27-.65-.42-1.35-.42-2.05V3.45h2.83c.7,0,1.37.27,1.86.76.49.48.77,1.14.77,1.82"/>
    <path class="st2" d="M109.05,22.16v8.11h-2.83c-.7,0-1.37-.27-1.86-.76-.49-.49-.77-1.14-.77-1.83v-5.53h5.46Z"/>
    <path class="st0" d="M22.16,25.29h4.82V3.44h-4.82v21.85ZM0,25.29h4.46l1.22-4.13h7.66l1.16,4.13h5.71L13.71,4.19h-6.47L0,25.29ZM6.69,17.72l2.87-9.73h.12l2.72,9.73h-5.71ZM45.98,25.5c4.3,0,8.18-3.11,8.18-8.65,0-4.96-2.81-7.93-6.29-7.93-1.77,0-3.14.66-4.7,1.92v-1.59h-4.82v21.13h4.82v-5.24c.92.24,1.86.37,2.81.36M65.61,25.29h4.82l-.58-4.01v-6.7c0-3.65-2.2-5.66-6.08-5.66-2.47,0-4.18.42-7.3,1.35l.86,3.68c2.84-1.26,4.09-1.8,5.4-1.8,1.59,0,2.29,1.11,2.29,2.81v.12c-5.52,1.02-7.24,1.58-8.3,2.63-.79.78-1.13,1.89-1.13,3.17,0,3.08,2.44,4.73,4.73,4.73,1.71,0,3.08-.63,4.95-2l.34,1.68h0ZM30.28,25.29h4.82V9.25h-4.82v16.05ZM87.04,9.28l.03-.03h-4.55l-2.87,9.76h-.15l-3.3-9.76h-5.4l6.5,16.11-2.72,4.91v.12h4.25l8.21-21.1ZM46.04,12.6c1.8,0,3.24,1.41,3.24,4.4,0,3.83-2.1,5.54-4.46,5.54-.56,0-1.12-.07-1.65-.24v-8.68c1.01-.69,1.83-1.02,2.87-1.02h0ZM60.26,20.41c0-.45.09-.9.46-1.26.58-.57,1.71-.99,4.3-1.59v3.83c-1.28.69-2.01.96-2.87.96-1.16,0-1.89-.75-1.89-1.95"/>
    <path class="st3" d="M29.93,5.39c0,1.56,1.16,2.6,2.78,2.6s2.78-1.05,2.78-2.6c0-1.53-1.17-2.6-2.78-2.6s-2.77,1.08-2.77,2.6"/>
  </g>
</svg>