<?xml version="1.0" encoding="UTF-8"?>
<svg id="Layer_1" xmlns="http://www.w3.org/2000/svg" version="1.1" xmlns:xlink="http://www.w3.org/1999/xlink" viewBox="0 0 120 33.17">
  <!-- Generator: Adobe Illustrator 29.0.0, SVG Export Plug-In . SVG Version: 2.1.0 Build 186)  -->
  <defs>
    <style>
      .st0 {
        fill: #4d4d4d;
      }

      .st1 {
        fill: none;
      }

      .st2 {
        fill: #1aad1a;
      }

      .st3 {
        clip-path: url(#clippath);
      }
    </style>
    <clipPath id="clippath">
      <rect class="st1" y="0" width="120" height="33.17"/>
    </clipPath>
  </defs>
  <g class="st3">
    <path class="st2" d="M9.82,19.74c-.12.06-.26.1-.41.1-.34,0-.63-.19-.78-.46l-.06-.13-2.46-5.39c-.03-.06-.04-.12-.04-.19,0-.25.2-.45.45-.45.1,0,.19.03.27.09l2.9,2.07c.21.14.47.22.74.22.16,0,.32-.03.46-.08l13.64-6.07c-2.44-2.88-6.47-4.76-11.02-4.76C6.04,4.67,0,9.71,0,15.92,0,19.31,1.82,22.36,4.66,24.42c.23.16.38.43.38.73,0,.1-.02.19-.05.29-.23.85-.59,2.21-.61,2.27-.03.11-.07.22-.07.33,0,.25.2.45.45.45.1,0,.18-.04.26-.08l2.95-1.71c.22-.13.46-.21.72-.21.14,0,.27.02.4.06,1.38.4,2.87.62,4.41.62,7.45,0,13.5-5.04,13.5-11.25,0-1.88-.56-3.65-1.54-5.21l-15.54,8.97-.1.06h0Z"/>
    <path class="st0" d="M45.88,16.83c-.09.32-.18.63-.26.93-.33,1.18-.62,2.21-.85,3.25-.22-1.24-.6-2.7-1.01-4.21l-1.94-7.33h-1.01l-2.14,7.39c-.49,1.59-.92,3.02-1.14,4.17-.22-1-.53-2.22-.85-3.5l-2.08-8.06h-1.11l3.48,13.16h.99l2.24-7.54c.53-1.76.88-2.98,1.09-4.06.19,1.17.5,2.4.95,4.06l1.96,7.55h1.01l3.95-13.16h-1.11l-2.16,7.37h0Z"/>
    <path class="st0" d="M53.25,13.92c.77,0,1.38.23,1.84.7.74.75.84,1.87.84,2.39h-5.7c.2-1.44,1.11-3.08,3.02-3.08M56.08,21.39c-.54.25-1.22.47-2.44.47-2.17,0-3.42-1.45-3.45-3.97h6.81v-.06c.05-.18.05-.32.05-.58,0-.35-.05-1.57-.68-2.63-.64-1.08-1.66-1.63-3.01-1.63-2.54,0-4.25,2.05-4.25,5.1,0,2.83,1.77,4.73,4.4,4.73,1.68,0,2.62-.43,2.95-.61l.05-.03-.45-.78h0Z"/>
    <path class="st0" d="M65.07,21.86c-3.39,0-5.42-2.14-5.42-5.73s2.08-5.94,5.57-5.94c.97,0,1.88.18,2.58.51l.49-.85-.04-.02c-.25-.14-1.21-.59-3.05-.59-3.99,0-6.68,2.76-6.68,6.87,0,4.94,3.36,6.7,6.23,6.7,1.64,0,2.9-.34,3.55-.66l.05-.02-.47-.81c-.75.35-1.8.55-2.82.55"/>
    <path class="st0" d="M74.26,12.99c-.69,0-1.35.19-1.91.55-.46.26-.88.68-1.17,1.17v-5.46h-1.08v13.37h1.08v-5.73c0-.38.02-.62.11-.9.43-1.2,1.55-2.03,2.72-2.03,2.15,0,2.47,1.95,2.47,3.1v5.56h1.08v-5.65c0-3.78-2.75-3.98-3.3-3.98"/>
    <path class="st0" d="M91.5,21.81c-.19.04-.46.07-.82.07-.87,0-1.27-.58-1.27-1.83v-5.94h2.64v-.91h-2.64v-2.08h-1.08v2.08h-1.56v.91h1.56v5.77c0,1.07.2,1.81.6,2.27.35.45.92.69,1.64.69.52,0,.96-.08,1.33-.24l.05-.02-.44-.76h0Z"/>
    <path class="st0" d="M102.78,13.18c0,1.97-1.33,3.1-3.65,3.1-.49,0-1.11-.02-1.58-.17v-5.69c.23-.05.81-.14,1.75-.14,2.2,0,3.47,1.05,3.47,2.89M99.35,9.36c-.94,0-1.88.08-2.81.25h-.07v13.01h1.08v-5.53c.42.11.9.13,1.5.13,1.67,0,3.04-.52,3.88-1.47.62-.68.93-1.55.93-2.66s-.36-1.97-1.03-2.6c-.75-.73-1.96-1.12-3.49-1.12"/>
    <path class="st0" d="M118.84,13.2l-2.28,6.05c-.21.55-.39,1.08-.55,1.55-.04.11-.07.22-.11.33-.19-.6-.41-1.27-.62-1.82l-2.43-6.06-.02-.05h-1.15l3.48,8.69c.09.23.11.33.11.38,0,.08-.04.2-.11.37-.47,1.12-1.09,1.87-1.53,2.31-.6.58-1.26.88-1.59,1.01l-.07.02.5.86c.25-.09.86-.37,1.56-.95,1.2-1.05,1.97-2.67,3.15-5.68l2.82-7.01h-1.16Z"/>
    <path class="st0" d="M84.77,19.57c0,.14-.02.34-.09.53-.3.87-1.15,1.8-2.67,1.8-.82,0-1.77-.48-1.77-1.85,0-.58.19-1.06.57-1.43.66-.64,1.87-.96,3.6-.96.12,0,.23,0,.35,0v1.91ZM85.99,22.53c-.12-.73-.13-1.48-.13-2.19v-3.63c0-2.44-1.14-3.72-3.28-3.72-.97,0-2,.3-2.76.8h0s.44.77.44.77c.61-.41,1.4-.64,2.23-.64h.03c.68,0,1.22.19,1.6.56.45.44.66,1.12.66,2.08v.17c-2.27-.02-3.88.45-4.81,1.36-.56.56-.85,1.27-.85,2.11,0,1.26.88,2.63,2.8,2.63,1.4,0,2.42-.73,2.95-1.45l.13,1.24h1.01v-.09h-.01Z"/>
    <path class="st0" d="M109.65,19.57c0,.14-.01.34-.09.53-.3.87-1.15,1.8-2.67,1.8-.82,0-1.77-.48-1.77-1.85,0-.58.19-1.06.57-1.43.66-.64,1.87-.96,3.6-.96.12,0,.23,0,.35,0M110.87,22.53c-.12-.73-.13-1.48-.13-2.19v-3.63c0-2.44-1.14-3.72-3.28-3.72-.92,0-1.9.28-2.66.74l.44.76c.59-.37,1.33-.57,2.12-.57h.03c.68,0,1.22.19,1.6.56.45.44.66,1.12.66,2.08v.17c-2.26-.02-3.88.45-4.81,1.36-.56.56-.85,1.27-.85,2.11,0,1.27.88,2.63,2.8,2.63,1.4,0,2.42-.72,2.95-1.45l.13,1.24h1.01v-.09s-.01,0-.01,0Z"/>
  </g>
</svg>